Motion_mu02
version=1
nRows=9
nColumns=43
inDegrees=yes
endheader
time	pelvis_tilt	pelvis_list	pelvis_rotation	pelvis_tx	pelvis_ty	pelvis_tz	hip_flexion_r	hip_adduction_r	hip_rotation_r	knee_angle_r	ankle_angle_r	subtalar_angle_r	mtp_angle_r	hip_flexion_l	hip_adduction_l	hip_rotation_l	knee_angle_l	ankle_angle_l	subtalar_angle_l	mtp_angle_l	lumbar_extension	lumbar_bending	lumbar_rotation	neck_flexion	neck_lateral_bending	neck_rotation	arm_flex_r	arm_add_r	arm_rot_r	elbow_flex_r	pro_sup_r	wrist_flex_r	wrist_dev_r	hand_finger_flex_r	arm_flex_l	arm_add_l	arm_rot_l	elbow_flex_l	pro_sup_l	wrist_flex_l	wrist_dev_l	hand_finger_flex_l
      1.30000000	      2.33285172	      5.55216757	    -91.38907333	     -0.04417938	      0.92209775	      0.88463263	      5.50121808	     -5.11505417	     -2.46369696	    -42.51939111	      5.93001232	     -1.16905927	     33.39230686	     17.46212158	     -3.93726909	     -3.97987530	    -47.45789469	      6.34865650	     17.00609114	     33.60339978	      2.40242674	     -3.58201437	      8.65001383	     -8.76404812	     -0.28874173	     -7.92652251	    -24.09634095	   -150.73052573	   -130.78169279	     40.65932379	    100.92990604	     55.23795502	      6.34210829	     73.18977528	    149.60429236	    -17.54543796	     41.50478686	     33.75586841	    110.74661516	     37.15310825	     -0.82957577	     73.55255233
      1.30250000	      2.33649213	      5.56288849	    -91.37366844	     -0.04407712	      0.92144929	      0.88625421	      5.43733736	     -5.12723447	     -2.45674045	    -42.59376715	      5.92509692	     -1.17146344	     33.39504969	     17.42606276	     -3.93797899	     -3.95989804	    -47.54116055	      6.34583488	     17.00945916	     33.61077416	      2.49167096	     -3.57799512	      8.66171465	     -8.76476767	     -0.28233962	     -7.92665286	    -24.05225607	   -150.77029664	   -130.80949058	     40.66180628	    100.93298082	     55.23453934	      6.34065757	     73.19208095	    149.65526224	    -17.51887371	     41.48528291	     33.77211179	    110.74869414	     37.14561316	     -0.83394385	     73.55719844
      1.30500000	      2.36369280	      5.43869062	    -91.34925565	     -0.04400797	      0.92083120	      0.88787682	      5.38612941	     -5.16316914	     -2.44463912	    -42.98132309	      5.91683494	     -1.18995218	     33.41728167	     17.48236351	     -3.89727242	     -3.82822127	    -48.10913910	      6.37521121	     17.04700659	     33.67124697	      2.48486450	     -3.59442766	      8.68949344	     -8.67965489	     -0.23983851	     -7.93056484	    -24.08458889	   -150.86977166	   -130.92043071	     40.46520992	    101.00061577	     55.22420912	      6.37153782	     73.20562479	    149.57427964	    -17.47238043	     41.44065983	     33.67210875	    110.80185241	     37.11566372	     -0.82916657	     73.58841238
      1.30750000	      2.36481540	      5.45652251	    -91.33887173	     -0.04390141	      0.92016524	      0.88954253	      5.33852129	     -5.16710950	     -2.43979152	    -43.05509958	      5.91211610	     -1.19251890	     33.42044568	     17.43284328	     -3.89373922	     -3.80569422	    -48.18696141	      6.37240238	     17.05180231	     33.67917170	      2.57581779	     -3.58935695	      8.68804593	     -8.67877173	     -0.23691028	     -7.93147574	    -24.02760275	   -150.91747734	   -130.95803082	     40.46585894	    101.00573400	     55.21928766	      6.37216165	     73.20875603	    149.64058827	    -17.43588919	     41.41374707	     33.68829286	    110.80373542	     37.10312085	     -0.83338685	     73.59294881
      1.31000000	      2.23487599	      6.04237674	    -90.74360463	     -0.04331996	      0.91830707	      0.88975632	      6.20791271	     -5.00116596	     -2.78629794	    -43.75324117	      5.56151260	     -1.46352509	     34.23770027	     18.64765584	     -3.82367081	     -2.84664712	    -49.08192198	      6.20170786	     17.10430586	     35.99852639	      3.16196892	     -3.49081442	      7.87976347	     -8.50465053	     -0.29588733	     -7.69340071	    -24.42065259	   -151.30409457	   -132.45222233	     40.25158931	    102.73449185	     55.39926141	      5.81838191	     73.63809396	    149.46572904	    -16.99031455	     39.31955096	     33.26388670	    113.38698911	     36.98531608	     -1.38654023	     75.48311349
      1.31250000	      2.23618456	      6.05120918	    -90.74244846	     -0.04325832	      0.91765162	      0.89160719	      6.13947595	     -5.00230341	     -2.78962110	    -43.83534677	      5.56545065	     -1.46883065	     34.24038176	     18.57828005	     -3.82711950	     -2.83407701	    -49.15433899	      6.19493200	     17.10618322	     36.00287854	      3.27294662	     -3.48969552	      7.89388093	     -8.49262558	     -0.29131702	     -7.69473650	    -24.38434265	   -151.33355270	   -132.46493190	     40.25163798	    102.73692350	     55.39615320	      5.81884777	     73.63900427	    149.49914721	    -16.96808147	     39.31088235	     33.28021649	    113.38836611	     36.98201548	     -1.38902502	     75.48377245
      1.31500000	      2.23968110	      5.94196254	    -90.75677885	     -0.04324251	      0.91706301	      0.89364433	      6.06393191	     -5.02445095	     -2.81522937	    -44.18459054	      5.59690576	     -1.50087001	     34.25547360	     18.49966834	     -3.82745070	     -2.77481322	    -49.50158621	      6.20558350	     17.12331288	     36.03312531	      3.33379781	     -3.48035205	      7.96550843	     -8.38832718	     -0.25914914	     -7.70249851	    -24.44887449	   -151.39409028	   -132.48958191	     40.09837417	    102.78053932	     55.39265453	      5.84934181	     73.64220354	    149.37475841	    -16.92309499	     39.32598846	     33.21858199	    113.42120757	     36.98136413	     -1.37783336	     75.48647034
      1.31750000	      2.23857486	      5.95117536	    -90.74744778	     -0.04310096	      0.91641175	      0.89545455	      6.00414580	     -5.02019458	     -2.81329986	    -44.27473965	      5.59462485	     -1.50519067	     34.25803271	     18.43646572	     -3.81303669	     -2.76311393	    -49.58574225	      6.20316123	     17.12767410	     36.03884655	      3.43040165	     -3.46958098	      7.98008829	     -8.38713080	     -0.25291340	     -7.70411057	    -24.39736781	   -151.43827630	   -132.52086610	     40.09661592	    102.78368970	     55.38890882	      5.85132295	     73.64430103	    149.43378111	    -16.89129292	     39.30639749	     33.23650430	    113.42122557	     36.97286109	     -1.38022280	     75.48736966
      1.32000000	      2.24443319	      5.78803010	    -90.70504079	     -0.04322110	      0.91560129	      0.89635169	      6.14380198	     -4.99156294	     -2.69701494	    -45.03054244	      5.55729591	     -1.64245729	     34.33490090	     18.49730697	     -3.78331442	     -2.55250981	    -50.14165812	      6.37287459	     17.20718574	     36.25849281	      3.18128981	     -3.45802212	      7.90697617	     -7.93036253	     -0.33019767	     -7.74991068	    -24.21290085	   -151.79075934	   -133.06857929	     39.63479359	    103.09010832	     55.39552178	      6.03063887	     73.70017118	    149.67864515	    -16.74020158	     38.88597967	     32.80899164	    113.61294266	     36.74911144	     -1.30867390	     75.52433609
